<svg version="1.1" id="Layer_1" xmlns="http://www.w3.org/2000/svg" xmlns:xlink="http://www.w3.org/1999/xlink" x="0px" y="0px" width="100%" viewBox="0 0 107 112" enable-background="new 0 0 107 112" xml:space="preserve">

<path fill="#FFFFFF" opacity="1.000000" stroke="none" d="
M1.000000,6.468657 
	C1.370420,6.000131 1.740841,6.000262 2.592282,6.269624 
	C5.766672,8.162118 8.333119,10.070922 11.184629,11.338407 
	C14.990805,13.030237 16.208385,15.411169 16.170282,19.704842 
	C15.911664,48.848682 16.048065,77.995834 15.943183,107.141502 
	C15.931180,110.477104 16.534208,112.257645 20.791349,110.761848 
	C20.791349,100.363716 20.791349,89.961426 20.791349,79.567795 
	C26.222267,79.567795 31.105595,79.567795 36.300213,79.567795 
	C35.729965,88.006569 38.600204,96.662628 30.501577,103.606461 
	C33.025360,103.874504 34.549664,104.036400 36.326294,104.225090 
	C36.202866,106.394829 36.100323,108.197395 35.631180,110.005402 
	C33.843052,111.007225 32.421528,112.003616 31.000000,113.000000 
	C21.032038,113.000000 11.064074,113.000000 1.000000,113.000000 
	C1.000000,77.645828 1.000000,42.291569 1.000000,6.468657 
M25.319180,98.086800 
	C26.526659,97.734612 28.130451,97.739510 28.846647,96.944656 
	C29.863926,95.815651 30.222893,94.095917 30.872997,92.632965 
	C31.510269,91.198891 32.159878,89.770309 32.804070,88.339325 
	C31.168432,87.894470 29.529264,87.066719 27.897869,87.081764 
	C24.103096,87.116753 22.797091,89.350533 24.000107,93.031853 
	C24.458782,94.435432 24.728952,95.900620 25.319180,98.086800 
z" data-index="1" style="visibility: hidden;"></path>

<path fill="#FAFAFA" opacity="1.000000" stroke="none" d="
M40.955914,110.893333 
	C40.971924,111.361343 40.987938,111.829361 41.001976,112.648682 
	C37.969406,113.000000 34.938812,113.000000 31.454109,113.000000 
	C32.421528,112.003616 33.843052,111.007225 35.832886,110.346481 
	C37.919434,110.752518 39.437675,110.822922 40.955914,110.893333 
z" data-index="3" style="opacity: 1;"></path>
<path fill="#181818" opacity="1.000000" stroke="none" d="
M40.928612,110.452873 
	C39.437675,110.822922 37.919434,110.752518 36.199486,110.341034 
	C36.100323,108.197395 36.202866,106.394829 36.326294,104.225090 
	C34.549664,104.036400 33.025360,103.874504 30.501577,103.606461 
	C38.600204,96.662628 35.729965,88.006569 36.300213,79.567795 
	C31.105595,79.567795 26.222267,79.567795 20.791349,79.567795 
	C20.791349,89.961426 20.791349,100.363716 20.791349,110.761848 
	C16.534208,112.257645 15.931180,110.477104 15.943183,107.141502 
	C16.048065,77.995834 15.911664,48.848682 16.170282,19.704842 
	C16.208385,15.411169 14.990805,13.030237 11.184629,11.338407 
	C8.333119,10.070922 5.766672,8.162118 2.868745,6.241934 
	C19.475166,5.850798 36.286072,5.739730 53.097149,5.669092 
	C62.256275,5.630606 71.420029,5.510795 80.571625,5.775695 
	C82.608231,5.834647 84.933205,6.957032 86.545250,8.290928 
	C89.608986,10.826035 91.997948,14.197104 95.128456,16.626556 
	C100.744217,20.984707 102.658318,26.261595 102.225540,33.387241 
	C101.923302,38.363461 101.157677,42.281986 97.068245,45.403843 
	C93.055672,48.467026 89.338120,51.914215 85.443268,55.135059 
	C83.380600,56.840790 83.961861,60.197166 86.131020,62.061798 
	C91.251373,66.463341 96.254181,71.024872 100.991348,75.830421 
	C102.006561,76.860283 101.649422,79.206825 102.003082,80.930687 
	C104.811714,94.620750 95.317513,101.227928 86.216972,107.838821 
	C83.929848,109.500244 80.716240,109.886292 77.151260,111.129471 
	C77.151260,84.132011 77.151260,58.258980 77.151260,31.964317 
	C71.652504,31.964317 66.608025,31.964317 60.853851,31.964317 
	C60.853851,37.417751 60.853165,42.991116 60.854065,48.564480 
	C60.854767,52.894325 60.831581,57.224369 60.865269,61.553967 
	C60.916328,68.116180 59.428608,75.095650 67.485054,80.182541 
	C64.289940,80.649025 62.769173,80.871063 60.863022,81.149361 
	C60.863022,89.912926 60.815151,98.715851 60.894032,107.517647 
	C60.915901,109.958328 60.825523,111.964859 57.070957,111.175598 
	C56.612480,101.237892 56.612480,91.422966 56.612480,81.292847 
	C54.950268,81.004845 53.468987,80.748199 50.947502,80.311325 
	C56.977161,74.829033 57.339775,68.408447 56.251740,61.331787 
	C51.415836,61.331787 46.510361,61.331787 40.892323,61.331787 
	C40.892323,68.708153 40.862774,76.281471 40.901054,83.854439 
	C40.935810,90.730591 39.381676,97.996902 47.085339,103.713928 
	C44.133762,103.866554 42.744026,103.938416 40.901310,104.033707 
	C40.901310,106.090385 40.901310,108.051399 40.928612,110.452873 
z" data-index="4" style="opacity: 1;"></path>

</svg>